<?xml version="1.0" encoding="utf-8"?>
<!-- Generator: Adobe Illustrator 19.2.1, SVG Export Plug-In . SVG Version: 6.00 Build 0)  -->
<svg version="1.1" id="Layer_1" xmlns="http://www.w3.org/2000/svg" xmlns:xlink="http://www.w3.org/1999/xlink" x="0px" y="0px"
	 width="28px" height="28px" viewBox="0 0 28 28" style="enable-background:new 0 0 28 28;" xml:space="preserve">
<style type="text/css">
	.st0{fill:#FFFFFF;stroke:#FFFFFF;stroke-width:0.762;stroke-miterlimit:10;}
	.st1{fill:none;stroke:#FFFFFF;stroke-width:1.7144;stroke-linecap:round;stroke-miterlimit:10;}
</style>
<g>
	<path class="st0" d="M11.5,3.3l-4,5.5H3c-0.4,0-0.8,0.3-0.8,0.8v8.1c0,0.4,0.3,0.8,0.8,0.8h4.5l4,5.5c0.5,0.3,1.2-0.1,1.2-0.7V4
		C12.8,3.4,12.1,3,11.5,3.3z"/>
	<path class="st1" d="M22.3,4.9c4.8,4.8,4.8,12.7,0,17.6"/>
	<path class="st1" d="M19.4,7.1c3.7,3.7,3.7,9.6,0,13.2"/>
	<path class="st1" d="M16.6,9.1c2.5,2.5,2.5,6.6,0,9.1"/>
</g>
</svg>
