<?xml version="1.0" encoding="utf-8"?>
<!-- Generator: Adobe Illustrator 19.2.1, SVG Export Plug-In . SVG Version: 6.00 Build 0)  -->
<svg version="1.1" id="Layer_1" xmlns="http://www.w3.org/2000/svg" xmlns:xlink="http://www.w3.org/1999/xlink" x="0px" y="0px"
	 width="28px" height="28px" viewBox="0 0 28 28" style="enable-background:new 0 0 28 28;" xml:space="preserve">
<style type="text/css">
	.st0{fill:#FFFFFF;stroke:#FFFFFF;stroke-width:0.8247;stroke-miterlimit:10;}
</style>
<path class="st0" d="M22.5,3.2h-1.6c-0.4,0-0.8,0.3-0.8,0.8v9.6c0-0.2-0.2-0.5-0.4-0.6L6.2,3.2C5.7,2.9,5,3.3,5,4v19.3
	c0,0.6,0.7,1,1.2,0.7l13.5-9.7c0.2-0.1,0.4-0.4,0.4-0.6v9.8c0,0.4,0.3,0.8,0.8,0.8h1.6c0.4,0,0.8-0.3,0.8-0.8V3.9
	C23.3,3.5,22.9,3.2,22.5,3.2z"/>
</svg>
