<?xml version="1.0" encoding="utf-8"?>
<!-- Generator: Adobe Illustrator 19.2.1, SVG Export Plug-In . SVG Version: 6.00 Build 0)  -->
<svg version="1.1" id="Layer_1" xmlns="http://www.w3.org/2000/svg" xmlns:xlink="http://www.w3.org/1999/xlink" x="0px" y="0px"
	 width="28px" height="28px" viewBox="0 0 28 28" style="enable-background:new 0 0 28 28;" xml:space="preserve">
<style type="text/css">
	.st0{fill:#FFFFFF;stroke:#FFFFFF;stroke-width:0.762;stroke-miterlimit:10;}
	.st1{fill:#FFFFFF;stroke:#FFFFFF;stroke-width:0.5474;stroke-miterlimit:10;}
</style>
<g>
	<path class="st0" d="M11.3,3.3l-4,5.5H2.8C2.4,8.8,2,9.2,2,9.6v8.1c0,0.4,0.3,0.8,0.8,0.8h4.4l4,5.6c0.5,0.3,1.2-0.1,1.2-0.7V4
		C12.5,3.4,11.8,3,11.3,3.3z"/>
	<path class="st1" d="M22.5,13.7l3.5-3.5c0.2-0.2,0.2-0.6,0-0.8l-1.1-1.1c-0.2-0.2-0.6-0.2-0.8,0l-3.5,3.5l-3.5-3.5
		c-0.2-0.2-0.6-0.2-0.8,0l-1.1,1.1c-0.2,0.2-0.2,0.6,0,0.8l3.5,3.5l-3.5,3.5c-0.2,0.2-0.2,0.6,0,0.8l1.1,1.1c0.2,0.2,0.6,0.2,0.8,0
		l3.5-3.5l3.5,3.5c0.2,0.2,0.6,0.2,0.8,0L26,18c0.2-0.2,0.2-0.6,0-0.8L22.5,13.7z"/>
</g>
</svg>
