<?xml version="1.0" encoding="utf-8"?>
<!-- Generator: Adobe Illustrator 20.0.0, SVG Export Plug-In . SVG Version: 6.00 Build 0)  -->
<svg version="1.1" id="Layer_1" xmlns="http://www.w3.org/2000/svg" xmlns:xlink="http://www.w3.org/1999/xlink" x="0px" y="0px"
	 viewBox="0 0 28 28" style="enable-background:new 0 0 28 28;" xml:space="preserve">
<style type="text/css">
	.st0{fill:#62A844;stroke:#64AA45;stroke-width:0.762;stroke-miterlimit:10;}
</style>
<g>
	<path class="st0" d="M5.8,24.2h5.1c0.4,0,0.8-0.3,0.8-0.8V3.9c0-0.4-0.3-0.8-0.8-0.8H5.8C5.4,3.2,5,3.5,5,3.9v19.6
		C5,23.9,5.4,24.2,5.8,24.2z"/>
	<path class="st0" d="M17.4,24.2h5.1c0.4,0,0.8-0.3,0.8-0.8V3.9c0-0.4-0.3-0.8-0.8-0.8h-5.1c-0.4,0-0.8,0.3-0.8,0.8v19.6
		C16.6,23.9,17,24.2,17.4,24.2z"/>
</g>
</svg>
