<?xml version="1.0" encoding="utf-8"?>
<!-- Generator: Adobe Illustrator 19.2.1, SVG Export Plug-In . SVG Version: 6.00 Build 0)  -->
<svg version="1.1" xmlns="http://www.w3.org/2000/svg" xmlns:xlink="http://www.w3.org/1999/xlink" x="0px" y="0px" width="66px"
	 height="66px" viewBox="0 0 66 66" style="enable-background:new 0 0 66 66;" xml:space="preserve">
<style type="text/css">
	.st0{display:none;}
	.st1{display:inline;fill:#66AA33;}
	.st2{fill:none;stroke:#66AA33;stroke-width:2;stroke-miterlimit:10;}
	.st3{display:inline;fill:#FFFFFF;stroke:#FFFFFF;stroke-width:0.8247;stroke-miterlimit:10;}
	.st4{display:inline;}
	.st5{fill:#FFFFFF;stroke:#FFFFFF;stroke-width:0.762;stroke-miterlimit:10;}
</style>
<g id="circle" class="st0">
	<circle class="st1" cx="33" cy="33" r="23"/>
</g>
<g id="ring">
	<circle class="st2" cx="33" cy="33" r="30.1"/>
</g>
<g id="video" class="st0">
	<path class="st3" d="M45.1,32.3l-16.7-9.7c-0.6-0.3-1.3,0.1-1.3,0.7v19.3c0,0.6,0.7,1,1.2,0.7L45,33.7
		C45.7,33.5,45.7,32.7,45.1,32.3z"/>
</g>
<g id="synopsis" class="st0">
	<g class="st4">
		<g>
			<path class="st5" d="M46.2,42.8v-3.5c0-0.3-0.4-0.6-1-0.6l-24.4,0c-0.5,0-1,0.2-1,0.6l0,3.5c0.1,0.3,0.5,0.6,1,0.6l24.5,0
				C45.8,43.3,46.2,43.1,46.2,42.8z"/>
		</g>
		<g>
			<path class="st5" d="M46.2,34.7v-3.5c0-0.3-0.4-0.6-1-0.6l-24.4,0c-0.5,0-1,0.2-1,0.6l0,3.5c0.1,0.3,0.5,0.6,1,0.6l24.5,0
				C45.8,35.3,46.2,35,46.2,34.7z"/>
		</g>
		<g>
			<path class="st5" d="M46.2,26.7v-3.5c0-0.3-0.4-0.6-1-0.6l-24.4,0c-0.5,0-1,0.2-1,0.6l0,3.5c0,0.3,0.4,0.6,1,0.6l24.5,0
				C45.8,27.3,46.2,27,46.2,26.7z"/>
		</g>
	</g>
</g>
</svg>
